#!OML:ASF E:/inclinewalkrobotboard/Project1/Captureday1/Session1/subject1.ASF
:FULLY-SPECIFIED
:DEGREES
63
root 0 0 0 0.46047947898556085 -3.167692320920461 1.2529028486944516
lowerback 11.504462569500848 0.6340223074862068 -0.5280774800047762
upperback -2.778225833296797 0.8014571652385263 0.0172739726324993
thorax -9.44961381915682 0.3577753390629201 0.19587649046756583
lowerneck -9.801280596651024 0.2611789848270516 2.3751599245557298
upperneck 18.552624617479616 1.130140188437473 -5.503410646222757
head 7.44744096613722 0.2723977808573508 -2.089797112201977
rclavicle 2.1247783644849737E-16 -7.382195917352221E-16
rhumerus 2.581445480349789 3.438194885574207 -59.56568256808525
rradius 56.195923616103016
rwrist 17.53956610353793
rhand -28.400308508117092 -27.544292981628377
rfingers 7.125019999999986
rthumb -1.7678148314666888 -57.78313006587285
lclavicle -8.352994480427492E-16 -1.7512556979665698E-16
lhumerus 3.0717875662957894 -9.59924786611776 59.03772403900642
lradius 55.77248398318929
lwrist -11.271234191030672
lhand -38.86062194414071 -35.98743426418024
lfingers 7.125019999999983
lthumb -11.801736583075881 -6.294947578904775
rfemur -25.26623761640444 1.7978231475111879 20.035174866141425
rtibia 47.70368434637354
rfoot -7.334118767440181 -9.854289863587361
rtoes -1.4321309766430455
lfemur -14.876541813641715 -0.32105205698888684 -17.1854088547957
ltibia 42.46714943304043
lfoot -6.058611057448506 -4.73539161580574
ltoes -6.2244824811872945
64
root 0 0 0 0.46056575539898503 -3.166407380863178 1.2551982685424063
lowerback 11.504614442957912 0.6331894445464048 -0.5303307940682164
upperback -2.7784301258339084 0.8000447628308914 0.01711329510308257
thorax -9.449966479401661 0.35714096604892936 0.19725546053451426
lowerneck -9.80060765306985 0.2615425928789503 2.3753736064527033
upperneck 18.55277646748036 1.1307555600175196 -5.503982633816045
head 7.447408396948328 0.27267530422907327 -2.089945308377651
rclavicle 2.1263311566634262E-16 -7.381636492095196E-16
rhumerus 2.581685345192138 3.4383011799866825 -59.56543221159551
rradius 56.19617736272932
rwrist 17.539735546019575
rhand -28.40038630023581 -27.54473431234221
rfingers 7.125019999999986
rthumb -1.7679118131715326 -57.783602176469785
lclavicle -8.353264363663335E-16 -1.7514319341147325E-16
lhumerus 3.0715128037085364 -9.599130512050195 59.03790943709794
lradius 55.77218800381479
lwrist -11.271147861066531
lhand -38.860512971935705 -35.987076781058384
lfingers 7.125019999999983
lthumb -11.801639370616952 -6.2946224080281965
rfemur -25.303436580976573 1.7876736640059874 20.016621968898008
rtibia 47.74865663945088
rfoot -7.316053025776544 -9.858654776648473
rtoes -1.4333064307958052
lfemur -14.881743502897711 -0.3125074921424952 -17.178446664593988
ltibia 42.527323495307904
lfoot -6.037821687501307 -4.756721777977885
ltoes -6.234949245765736
65
root 0 0 0 0.46073176448372566 -3.164327418921306 1.25875156605974
lowerback 11.504800932223185 0.6318527677187009 -0.5338909236118073
upperback -2.77873629583066 0.7977960231762792 0.016892733460100118
thorax -9.450463813510773 0.35613200922973115 0.19944453384124594
lowerneck -9.79964807834741 0.26212142696128105 2.3756722903315985
upperneck 18.552851068659013 1.1316925744782589 -5.504783789032007
head 7.447308578021161 0.2731030454434493 -2.090140274791492
rclavicle 2.126695770106502E-16 -7.38090249525559E-16
rhumerus 2.581861785652613 3.4383662455303607 -59.565288743007336
rradius 56.1963266330512
rwrist 17.53986436823312
rhand -28.40044004890983 -27.545024579533543
rfingers 7.125019999999986
rthumb -1.7679733059190363 -57.783903838849724
lclavicle -8.352978831882139E-16 -1.7498915649287362E-16
lhumerus 3.072978139267345 -9.599533286737625 59.03689868991101
lradius 55.77331834453611
lwrist -11.271846018049336
lhand -38.86100459872598 -35.989510313958846
lfingers 7.125019999999983
lthumb -11.802102197942247 -6.297137522735532
rfemur -25.347687685484118 1.7763369693103284 19.99477669264479
rtibia 47.794340187303135
rfoot -7.299737079500029 -9.865587980978304
rtoes -1.43870438263821
lfemur -14.890641460619308 -0.30471126167997786 -17.170580116969873
ltibia 42.58227992758747
lfoot -6.018788484330696 -4.774994259303128
ltoes -6.243510115449423
66
root 0 0 0 0.46093673344479535 -3.16223530892531 1.262243179510824
lowerback 11.5049465268974 0.6305270617277812 -0.5374289634654664
upperback -2.7790409325031313 0.7955708094216363 0.016680738891093894
thorax -9.450934119042902 0.3551332446494776 0.20160907566679198
lowerneck -9.79872011061304 0.2627123650075278 2.375961566562297
upperneck 18.552774809747934 1.132629699116075 -5.505541345078928
head 7.447155403553055 0.27353400147183393 -2.0903145724613155
rclavicle 2.1272649445727942E-16 -7.380800054679207E-16
rhumerus 2.5821014775693207 3.43850501711208 -59.56512287023942
rradius 56.19654019084426
rwrist 17.53999580826129
rhand -28.40051289974635 -27.545403163243268
rfingers 7.125019999999986
rthumb -1.7680499388461755 -57.78431463764601
lclavicle -8.35315653608093E-16 -1.7485129278932905E-16
lhumerus 3.0752502191375513 -9.600178717334982 59.03532003542831
lradius 55.77509682340536
lwrist -11.272902768265789
lhand -38.861764532100864 -35.993257985742396
lfingers 7.125019999999983
lthumb -11.802827442440906 -6.301052014991683
rfemur -25.387757207865288 1.7664019612060167 19.97509188197806
rtibia 47.83240796743171
rfoot -7.286918100208492 -9.872531632470574
rtoes -1.4451215733244602
lfemur -14.89914812084578 -0.29868450220933707 -17.164053923820976
ltibia 42.62429463534527
lfoot -6.0048443048276505 -4.788339784067267
ltoes -6.249904335158922
